<?xml version="1.0" encoding="UTF-8"?>
<svg id="Layer_1" xmlns="http://www.w3.org/2000/svg" version="1.1" viewBox="0 0 2048 2048">
  <!-- Generator: Adobe Illustrator 30.3.0, SVG Export Plug-In . SVG Version: 2.1.3 Build 182)  -->
  <defs>
    <style>
      .st0 {
        fill: #f5a04a;
      }

      .st1 {
        fill: #29152f;
      }
    </style>
  </defs>
  <path class="st1" d="M1614.1,614.5c-5.6-32.4-20.9-62.3-43.9-85.7-50.4-50.7-102.7-43.4-167.4-43.4.2,46.2,7.6,92.1-28.4,127.3-38.4,37.6-94.5,37.9-132.6-.2-34.9-34.8-27.9-82-27.7-127.1h-380c.2,45.8,7.7,92.7-28.3,127.7-39,38-94.7,36.7-133.1-1.6-35-34.9-27.5-80.9-27.3-126.2h-64.7c-42,1.4-77.4,16.1-106.4,47.1-21.7,23.4-35.9,52.9-40.6,84.5-4.1,27.5-2.6,92.1-2.6,122.3v758.5c0,24.3-.2,48.6,0,73,.8,70.1,53.9,132.4,123.5,142.7,15.4,2.3,32.2,1.6,48,1.6h805.9c21.3,0,48.5.8,69.5-.2,38.2-1.7,74.2-18.6,99.9-46.9,31.9-34.9,39.1-71.9,38.6-117.3v-829.7c0-28.2,1.5-81-2.7-106.5h.3ZM1545.7,1580.5c-2.4,30-33.7,62.5-64,65.1-26.5,2.3-56.9,1.1-84.3,1.1h-805c-27.6,0-47.2-2.2-68.2-22.6-10.5-10.2-21.4-30.5-22.3-45-1.7-27.1-.9-58-.9-85.4v-749.7l904.2-3.5,141.2-.6v753.8c0,28.1,1.2,59.1-1,86.7h.3Z"/>
  <path class="st0" d="M1211,1379.1h239.4v214.7c-5.7.7-19.6.4-26.1.4h-213.4v-215h0Z"/>
  <path class="st1" d="M1388.9,1423c12-1.6,23.4,4.9,24.3,18,.6,8.7-8.2,16.8-13.9,22.9l-53.2,55.7c-40.8,42.6-34.3,39.6-76.2-1.9-9.8-9.2-43.3-36.5-3.1-48.4,8.9-2.6,33.2,25,41.9,33.5,13-13.2,70.1-74.8,80.2-79.8h0Z"/>
  <path class="st1" d="M603.7,839.3h239.2v214.3h-239.1c0,0,0-214.3,0-214.3h-.1Z"/>
  <path class="st1" d="M907,1379.9h239.2v214.2h-239.2v-214.2h0Z"/>
  <path class="st1" d="M907.1,839.3h239c0,70.1,1.4,144.6-.2,214.2-78.9,1.1-159.9.2-238.9.2v-214.5h0Z"/>
  <path class="st1" d="M907,1110.1h239.1v213.8h-239.1v-213.8Z"/>
  <path class="st1" d="M603.7,1110.1h239.2v213.8c-78.6,1.1-160.3,0-239.1,0v-213.9h-.1Z"/>
  <path class="st1" d="M1211.1,839.3h239v214.3c-79.1,1-159.8.2-239,.2v-214.5h0Z"/>
  <path class="st1" d="M1211,1110.1h239v213.8h-239v-213.8Z"/>
  <path class="st1" d="M707.5,1413.6c3.8,3,18.4,18.6,22.6,23l46.9,48.2-62.7,65c-9.6,9.9-20.8,22.3-31.4,31-4.3,3.5-16.3,5.1-22.1,6.1-14,2.5-28.3,6.4-42.4,8-5.3.6-12.2.7-16.4-3.3-2-2-2.8-4.5-2.8-7.2-.2-7.8,8.3-62.6,11-67.9,6.1-12,82.6-87.8,97.2-102.9h.1Z"/>
  <path class="st1" d="M761.2,1369.3c7.3.6,14.6,3,20.1,8.7,17.7,18.5,57.2,44,29.5,71.6-3.8,3.8-12.2,14.6-16.7,14.8l-3.1-3c-21.6-21.6-43.1-44.5-64.3-66.6,10.9-11.9,18.4-23.1,34.7-25.5h-.2Z"/>
  <path class="st0" d="M733.9,350.2c11.2-.8,21.2.9,31,6.7,11.3,6.6,19.5,17.6,22.5,30.4,3.2,13.4,2.4,29.8,2.4,43.7v98.8c0,18-.2,35.3-13.2,49.4-9,9.8-17.1,13.3-29.5,16.1-25.3,1.8-52.4-12.8-55.6-40-1.7-28.6-2.8-60.2-1.6-89,1.9-44.3-14.2-104.7,43.9-116.1h0Z"/>
  <path class="st0" d="M1301.9,350.3c12.2-.5,20.3.4,31.1,6.5,29.2,16.5,25.1,48,25.1,76.2v98.4c0,17,.2,32.1-11.2,45.8-8.8,10.7-17.3,14.6-30,17.9-12.4,1.6-24.2-.4-34.8-7.2-10.9-6.8-18.6-17.7-21.4-30.3-3.4-15.4-3.4-145.4-1.1-163,1-8,3-14.7,7.4-21.5,8.3-12.9,20.3-19.6,34.9-22.8h0Z"/>
</svg>