<?xml version="1.0" encoding="UTF-8"?>
<svg id="Layer_1" xmlns="http://www.w3.org/2000/svg" version="1.1" viewBox="0 0 2048 2048">
  <!-- Generator: Adobe Illustrator 30.3.0, SVG Export Plug-In . SVG Version: 2.1.3 Build 182)  -->
  <defs>
    <style>
      .st0 {
        fill: #f5a04a;
      }

      .st1 {
        fill: #29152f;
      }
    </style>
  </defs>
  <path class="st1" d="M1892.9,408.5c-8.2-47.7-30.8-91.7-64.6-126.2-74.2-74.6-151.2-63.9-246.4-63.9.3,68,11.2,135.6-41.8,187.4-56.5,55.3-139.1,55.8-195.2-.3-51.4-51.2-41.1-120.7-40.8-187.1h-559.4c.3,67.4,11.3,136.5-41.7,188-57.4,55.9-139.4,54-195.9-2.4-51.5-51.4-40.5-119.1-40.2-185.8h-95.2c-61.8,2.1-113.9,23.7-156.6,69.3-31.9,34.4-52.8,77.9-59.8,124.4-6,40.5-3.8,135.6-3.8,180v1116.5c0,35.8-.3,71.5,0,107.5,1.2,103.2,79.3,194.9,181.8,210.1,22.7,3.4,47.4,2.4,70.7,2.4h1186.3c31.4,0,71.4,1.2,102.3-.3,56.2-2.5,109.2-27.4,147.1-69,47-51.4,57.6-105.8,56.8-172.7V565.1c0-41.5,2.2-119.2-4-156.8h.4,0ZM1792.2,1830.4c-3.5,44.2-49.6,92-94.2,95.8-39,3.4-83.8,1.6-124.1,1.6H389c-40.6,0-69.5-3.2-100.4-33.3-15.5-15-31.5-44.9-32.8-66.2-2.5-39.9-1.3-85.4-1.3-125.7V599.1l1331-5.2,207.8-.9v1109.6c0,41.4,1.8,87-1.5,127.6h.4Z"/>
  <path class="st0" d="M1299.6,1534h352.4v316c-8.4,1-28.9.6-38.4.6h-314.1v-316.5h.1Z"/>
  <path class="st1" d="M1561.4,1598.6c17.7-2.4,34.4,7.2,35.8,26.5.9,12.8-12.1,24.7-20.5,33.7l-78.3,82c-60.1,62.7-50.5,58.3-112.2-2.8-14.4-13.5-63.7-53.7-4.6-71.2,13.1-3.8,48.9,36.8,61.7,49.3,19.1-19.4,103.2-110.1,118.1-117.5h0Z"/>
  <path class="st1" d="M405.6,739.4h352.1v315.4h-352v-315.4h-.1Z"/>
  <path class="st1" d="M852.1,1535.1h352.1v315.3h-352.1v-315.3h0Z"/>
  <path class="st1" d="M852.2,739.4h351.8c0,103.2,2.1,212.9-.3,315.3-116.1,1.6-235.4.3-351.7.3v-315.7h.1Z"/>
  <path class="st1" d="M852.1,1138h352v314.7h-352v-314.7Z"/>
  <path class="st1" d="M405.6,1138h352.1v314.7c-115.7,1.6-236,0-352,0v-314.9h-.1Z"/>
  <path class="st1" d="M1299.7,739.4h351.8v315.4c-116.4,1.5-235.2.3-351.8.3v-315.7h0Z"/>
  <path class="st1" d="M1299.6,1138h351.8v314.7h-351.8v-314.7Z"/>
  <path class="st1" d="M558.4,1584.7c5.6,4.4,27.1,27.4,33.3,33.9l69,71-92.3,95.7c-14.1,14.6-30.6,32.8-46.2,45.6-6.3,5.2-24,7.5-32.5,9-20.6,3.7-41.7,9.4-62.4,11.8-7.8.9-18,1-24.1-4.9-2.9-2.9-4.1-6.6-4.1-10.6-.3-11.5,12.2-92.1,16.2-99.9,9-17.7,121.6-129.2,143.1-151.5h.1Z"/>
  <path class="st1" d="M637.5,1519.5c10.7.9,21.5,4.4,29.6,12.8,26.1,27.2,84.2,64.8,43.4,105.4-5.6,5.6-18,21.5-24.6,21.8l-4.6-4.4c-31.8-31.8-63.4-65.5-94.6-98,16-17.5,27.1-34,51.1-37.5h-.3Z"/>
  <path class="st0" d="M597.3,19.4c16.5-1.2,31.2,1.3,45.6,9.9,16.6,9.7,28.7,25.9,33.1,44.7,4.7,19.7,3.5,43.9,3.5,64.3v145.4c0,26.5-.3,52-19.4,72.7-13.2,14.4-25.2,19.6-43.4,23.7-37.2,2.6-77.1-18.8-81.8-58.9-2.5-42.1-4.1-88.6-2.4-131,2.8-65.2-20.9-154.1,64.6-170.9h.1Z"/>
  <path class="st0" d="M1433.4,19.6c18-.7,29.9.6,45.8,9.6,43,24.3,36.9,70.7,36.9,112.2v144.8c0,25,.3,47.3-16.5,67.4-13,15.8-25.5,21.5-44.2,26.3-18.3,2.4-35.6-.6-51.2-10.6-16-10-27.4-26.1-31.5-44.6-5-22.7-5-214-1.6-239.9,1.5-11.8,4.4-21.6,10.9-31.6,12.2-19,29.9-28.9,51.4-33.6h0Z"/>
</svg>